<svg xmlns="http://www.w3.org/2000/svg" width="16" height="16" fill="#198754" class="bi bi-card-checklist" viewBox="0 0 16 16">
  <path d="M14.5 3a.5.5 0 0 1 .5.5v9a.5.5 0 0 1-.5.5h-13a.5.5 0 0 1-.5-.5v-9a.5.5 0 0 1 .5-.5h13zm-13-1A1.5 1.5 0 0 0 0 3.5v9A1.5 1.5 0 0 0 1.5 14h13a1.5 1.5 0 0 0 1.5-1.5v-9A1.5 1.5 0 0 0 14.5 2h-13z"/>
  <path d="M7 5.5a.5.5 0 0 1 .5-.5h5a.5.5 0 0 1 0 1h-5a.5.5 0 0 1-.5-.5zm0 2a.5.5 0 0 1 .5-.5h5a.5.5 0 0 1 0 1h-5a.5.5 0 0 1-.5-.5zm0 2a.5.5 0 0 1 .5-.5h5a.5.5 0 0 1 0 1h-5a.5.5 0 0 1-.5-.5zM4.146 5.146a.5.5 0 0 1 .708 0l.646.647.646-.647a.5.5 0 1 1 .708.708l-1 1a.5.5 0 0 1-.708 0l-1-1a.5.5 0 0 1 0-.708zm0 2a.5.5 0 0 1 .708 0l.646.647.646-.647a.5.5 0 1 1 .708.708l-1 1a.5.5 0 0 1-.708 0l-1-1a.5.5 0 0 1 0-.708zm0 2a.5.5 0 0 1 .708 0l.646.647.646-.647a.5.5 0 1 1 .708.708l-1 1a.5.5 0 0 1-.708 0l-1-1a.5.5 0 0 1 0-.708z"/>
</svg>
